# xmcd
#
# Track frame offsets: 
#        150
#        20322
#        37915
#        56784
#        75457
#        117846
#        134781
#        148910
#        166263
#        180900
#
# Disc length: 2600 seconds
#
# Revision: 0
# Processed by: cddbd v1.5.1PL0 Copyright (c) Steve Scherf et al.
# Submitted via: ExactAudioCopy v0.95b2
#
DISCID=800a260a
DTITLE=Andy Pratt - Cover Me
DYEAR=2003
DGENRE=Pop
TTITLE0=Under Pressure
TTITLE1=Everybody's Talkin'
TTITLE2=Don't Worry Baby
TTITLE3=The Harder They Come
TTITLE4=The Message
TTITLE5=Goin' Back
TTITLE6=Behind Closed Doors
TTITLE7=Tell It Like It Is
TTITLE8=Beauty's Only Skin Deep
TTITLE9=Give Peace A Chance
EXTD=
EXTT0=
EXTT1=
EXTT2=
EXTT3=
EXTT4=
EXTT5=
EXTT6=
EXTT7=
EXTT8=
EXTT9=
PLAYORDER=
